<?xml version="1.0" encoding="UTF-8"?>
<svg width="20px" height="20px" viewBox="0 0 20 20" version="1.1" xmlns="http://www.w3.org/2000/svg" xmlns:xlink="http://www.w3.org/1999/xlink">
    <title>duration-1</title>
    <g id="Page-1" stroke="none" stroke-width="1" fill="none" fill-rule="evenodd">
        <g id="Design-Menu-2" transform="translate(-26.000000, -341.000000)" fill="#000000" fill-rule="nonzero" stroke="#000000">
            <g id="duration-1" transform="translate(27.000000, 342.000000)">
                <path d="M9.68171538,4.72234615 C9.68171538,4.34000769 9.37174615,4.03003846 8.98940769,4.03003846 C8.60706923,4.03003846 8.2971,4.34000769 8.2971,4.72234615 L8.2971,9.00826154 C8.29716923,9.02093077 8.29742308,9.03170769 8.29795385,9.04246154 C8.29823077,9.04802308 8.29873846,9.05351538 8.29915385,9.05905385 C8.29956923,9.06475385 8.29989231,9.07047692 8.30044615,9.07615385 C8.30111538,9.0831 8.30203846,9.08995385 8.30291538,9.09683077 C8.30344615,9.10105385 8.30390769,9.10527692 8.30453077,9.1095 C8.30561538,9.11693077 8.30693077,9.12426923 8.30826923,9.13163077 C8.30893846,9.1353 8.30951538,9.13899231 8.31023077,9.14266154 C8.31168462,9.15009231 8.31336923,9.15743077 8.31507692,9.16476923 C8.31590769,9.16841538 8.31669231,9.17203846 8.31759231,9.17568462 C8.31934615,9.18279231 8.32130769,9.18980769 8.32329231,9.19682308 C8.3244,9.20072308 8.32543846,9.20462308 8.32661538,9.20852308 C8.32857692,9.21505385 8.33072308,9.22149231 8.33286923,9.22793077 C8.33434615,9.23233846 8.33577692,9.23674615 8.33734615,9.24113077 C8.3394,9.2469 8.34161538,9.2526 8.34383077,9.2583 C8.34576923,9.26330769 8.34768462,9.26829231 8.34973846,9.27325385 C8.35179231,9.27821538 8.35398462,9.28308462 8.35613077,9.288 C8.3586,9.29360769 8.36106923,9.29921538 8.3637,9.30475385 C8.36568462,9.30893077 8.36778462,9.31303846 8.36983846,9.31716923 C8.37288462,9.32326154 8.37593077,9.32933077 8.37916154,9.33535385 C8.38107692,9.33890769 8.38308462,9.34241538 8.38506923,9.34594615 C8.38864615,9.35233846 8.39222308,9.35870769 8.39603077,9.36498462 C8.39792308,9.36812308 8.39990769,9.37119231 8.40184615,9.37428462 C8.40588462,9.38074615 8.40992308,9.38718462 8.41419231,9.39355385 C8.41622308,9.39657692 8.41836923,9.39953077 8.42044615,9.40253077 C8.42476154,9.40873846 8.42905385,9.41492308 8.43357692,9.42101538 C8.43604615,9.42433846 8.43865385,9.42756923 8.44119231,9.43084615 C8.44550769,9.43643077 8.4498,9.44203846 8.4543,9.44753077 C8.45766923,9.45161538 8.4612,9.45558462 8.46466154,9.4596 C8.46856154,9.46412308 8.47234615,9.46869231 8.47638462,9.47312308 C8.48266154,9.48006923 8.48916923,9.48680769 8.49572308,9.49347692 C8.49713077,9.49490769 8.49844615,9.49640769 8.49987692,9.49783846 L11.5305,12.5284154 C11.6656615,12.6636 11.8428462,12.7311923 12.0200308,12.7311923 C12.1972154,12.7311923 12.3743769,12.6636 12.5095615,12.5284154 C12.7799308,12.2580462 12.7799308,11.8197231 12.5095615,11.5493538 L9.68171538,8.72150769 L9.68171538,4.72234615 Z" id="Path" stroke-width="0.1"></path>
                <path d="M9,-0.025 C10.2180777,-0.025 11.4000532,0.213708235 12.5131618,0.684513322 C13.5879199,1.13909407 14.5530155,1.78972173 15.3816471,2.61835335 C16.2102552,3.44698452 16.8608827,4.4120799 17.3154867,5.48683813 C17.7862918,6.59994684 18.025,7.78192229 18.025,9 C18.025,10.2180779 17.7862917,11.4000534 17.3154636,12.5131618 C16.8608828,13.58792 16.210255,14.5530388 15.3816236,15.3816471 C14.5529924,16.2102552 13.587897,16.8608827 12.513139,17.3154866 C11.4000533,17.7862917 10.2180778,18.025 9,18.025 C7.78192215,18.025 6.59994656,17.7862917 5.48683837,17.3154637 C4.41205695,16.8608829 3.44696121,16.2102551 2.61835285,15.3816236 C1.78974482,14.5529924 1.13911729,13.587897 0.684513421,12.513139 C0.213708276,11.4000533 -0.025,10.2180778 -0.025,9 C-0.025,7.78192229 0.213708235,6.59994684 0.684513247,5.48683837 C1.13909407,4.41205695 1.78972185,3.44696121 2.61835335,2.61835285 C3.44698452,1.78974482 4.4120799,1.13911729 5.48683813,0.684513349 C6.59994684,0.213708235 7.78192229,-0.025 9,-0.025 Z M9,1.40961538 C6.90731946,1.40961538 5.00972946,2.26088165 3.63530555,3.63530555 C2.26088165,5.00972946 1.40961538,6.90731946 1.40961538,9 C1.40961538,11.0926805 2.26088165,12.9902705 3.63530555,14.3646944 C5.00972946,15.7391183 6.90731946,16.5903846 9,16.5903846 C11.0926805,16.5903846 12.9902705,15.7391183 14.3646944,14.3646944 C15.7391183,12.9902705 16.5903846,11.0926805 16.5903846,9 C16.5903846,6.90731946 15.7391183,5.00972946 14.3646944,3.63530555 C12.9902705,2.26088165 11.0926805,1.40961538 9,1.40961538 Z" id="Shape" stroke-width="0.05"></path>
            </g>
        </g>
    </g>
</svg>